<svg xmlns="http://www.w3.org/2000/svg" viewBox="0 0 64 64"><radialGradient id="YAUH~pB5OZ9CKQK6YVoada" cx="-661.601" cy="159.599" r="1" gradientTransform="matrix(27.6945 0 0 -27.6945 18354.676 4453.4)" gradientUnits="userSpaceOnUse" spreadMethod="reflect"><stop offset="0" stop-color="#e1c98e"/><stop offset="0" stop-color="#e1c98e"/><stop offset=".242" stop-color="#e9d6a9"/><stop offset=".521" stop-color="#f1e2c1"/><stop offset=".781" stop-color="#f5eacf"/><stop offset="1" stop-color="#f7ecd4"/></radialGradient><path fill="url(#YAUH~pB5OZ9CKQK6YVoada)" d="M56,6H40.107H19H6.17C4.545,6,3.089,7.217,3.004,8.839C3.001,8.893,3,8.947,3,9 C3,10.656,4.343,12,6,12h0.357c1.308,0,2.499,0.94,2.63,2.242C8.996,14.33,9,14.417,9,14.503C8.999,15.882,7.88,17,6.5,17H3.17 c-1.625,0-3.081,1.217-3.166,2.839C0.001,19.893,0,19.947,0,20C0,21.656,1.343,23,3,23h3.893c0.997,0,1.92,0.681,2.08,1.664 C8.991,24.777,9,24.888,9,24.997C9.002,26.103,8.106,27,7,27H5.107c-0.997,0-1.92,0.681-2.08,1.664C3.009,28.777,3,28.888,3,28.997 C2.998,30.103,3.894,31,5,31h5.375c0.988,0,6.375,6.12,6.376,7.8c0,0.013,0,0.026-0.001,0.039c-0.001,0.01-0.001,0.02-0.001,0.03 C16.748,40.585,24.3,42,26,42l0,0l0,0h-7.5c0.828,0,1.5,0.672,1.5,1.5l0,0l0,0c0,0.828-0.672,1.5-1.5,1.5h-0.04v0.004l0,0 c-1.357,0.022-2.461,1.136-2.46,2.499c0,0.091,0.005,0.183,0.015,0.276C16.157,49.072,17.351,50,18.653,50h25.693 c1.303,0,2.496-0.928,2.638-2.222C46.995,47.685,47,47.593,47,47.503c0.002-1.363-1.103-2.477-2.46-2.499V45H44.5h-2 c-0.827,0-1.498-0.67-1.5-1.497c0-0.102,0.01-0.205,0.03-0.311c0.144-0.721,0.836-1.165,1.57-1.194 C43.935,41.945,45,40.847,45,39.5v-1c-0.194-0.194-0.306-0.306-0.5-0.5H36v-5h9.357c1.224,0,6.087-0.828,6.333-2h3.81 c1.381,0,2.5-1.119,2.5-2.5c0-1.381-1.119-2.5-2.5-2.5h-1c-0.828,0-1.5-0.672-1.5-1.5l0,0l0,0c0-0.828,0.672-1.5,1.5-1.5h5.33 c1.625,0,3.081-1.217,3.166-2.839C62.999,20.107,63,20.053,63,20c-0.001-1.656-1.344-3-3-3h-4.358c-1.308,0-2.499-0.94-2.63-2.242 C53.004,14.67,53,14.583,53,14.497C53.001,13.118,54.12,12,55.5,12h0.33c1.625,0,3.081-1.217,3.166-2.839 C58.999,9.107,59,9.053,59,9C59,7.344,57.657,6,56,6"/><linearGradient id="YAUH~pB5OZ9CKQK6YVoadb" x1="31" x2="31" y1="11" y2="48" gradientUnits="userSpaceOnUse" spreadMethod="reflect"><stop offset="0" stop-color="#ecf9fd"/><stop offset=".848" stop-color="#f2fdff"/><stop offset="1" stop-color="#f4feff"/></linearGradient><path fill="url(#YAUH~pB5OZ9CKQK6YVoadb)" d="M50,48H12V14c0-1.657,1.343-3,3-3h32c1.657,0,3,1.343,3,3V48z"/><defs><path id="YAUH~pB5OZ9CKQK6YVoadc" d="M50,29h-7.5c-1.381,0-2.5,1.119-2.5,2.5c0,1.381,1.119,2.5,2.5,2.5c1.381,0,2.5,1.119,2.5,2.5 S43.881,39,42.5,39h-4c-1.381,0-2.5,1.119-2.5,2.5c0,1.381,1.119,2.5,2.5,2.5H47c1.657,0,3-1.343,3-3V29"/></defs><path fill="#fff" d="M35.5 22.5L35.5 22.5c0 1.381 1.119 2.5 2.5 2.5h0c1.381 0 2.5-1.119 2.5-2.5v0c0-1.381-1.119-2.5-2.5-2.5h0C36.619 20 35.5 21.119 35.5 22.5zM27.5 25H30c1.381 0 2.5-1.119 2.5-2.5v0c0-1.381-1.119-2.5-2.5-2.5h-9c-1.105 0-2-.895-2-2v0c0-1.105.895-2 2-2h8.5c1.381 0 2.5-1.119 2.5-2.5v0c0-1.381-1.119-2.5-2.5-2.5H15c-1.657 0-3 1.343-3 3v30h9.5c1.381 0 2.5-1.119 2.5-2.5v0c0-1.381-1.119-2.5-2.5-2.5H21c-1.105 0-2-.895-2-2v0c0-1.105.895-2 2-2h9.5c1.381 0 2.5-1.119 2.5-2.5v0c0-1.381-1.119-2.5-2.5-2.5h-3c-1.381 0-2.5-1.119-2.5-2.5v0C25 26.119 26.119 25 27.5 25z"/><linearGradient id="YAUH~pB5OZ9CKQK6YVoadd" x1="31" x2="31" y1="37" y2="20" gradientUnits="userSpaceOnUse" spreadMethod="reflect"><stop offset="0" stop-color="#ff634d"/><stop offset=".204" stop-color="#fe6464"/><stop offset=".521" stop-color="#fc6581"/><stop offset=".794" stop-color="#fa6694"/><stop offset=".989" stop-color="#fa669a"/><stop offset="1" stop-color="#fa669a"/></linearGradient><path fill="url(#YAUH~pB5OZ9CKQK6YVoadd)" d="M40.881,24.125c-0.427-2.046-2.119-3.672-4.176-4.039c-2.112-0.377-4.029,0.508-5.161,2.02 c-0.266,0.355-0.821,0.355-1.087,0c-1.132-1.512-3.049-2.397-5.161-2.02c-2.057,0.367-3.749,1.993-4.176,4.039 c-0.403,1.93,0.25,3.726,1.486,4.921l-0.002,0.001l7.237,7.469c0.638,0.645,1.681,0.645,2.319,0l7.233-7.467l-0.001,0 C40.631,27.853,41.284,26.057,40.881,24.125z"/><linearGradient id="YAUH~pB5OZ9CKQK6YVoade" x1="-652.235" x2="-651.235" y1="211.354" y2="211.354" gradientTransform="matrix(0 -17 -17 0 3631 -11051)" gradientUnits="userSpaceOnUse" spreadMethod="reflect"><stop offset="0" stop-color="#ff735f"/><stop offset=".151" stop-color="#fe746f"/><stop offset=".488" stop-color="#fc758c"/><stop offset=".779" stop-color="#fb769e"/><stop offset=".989" stop-color="#fb76a4"/><stop offset="1" stop-color="#fb76a4"/></linearGradient><path fill="url(#YAUH~pB5OZ9CKQK6YVoade)" d="M37.088,20.17c-0.329,0.13-0.619,0.32-0.858,0.559c-0.45,0.45-0.73,1.08-0.73,1.77 c0,1.38,1.12,2.5,2.5,2.5c0.69,0,1.32-0.28,1.77-0.73c0.35-0.35,0.6-0.82,0.69-1.34c-0.303-0.614-0.725-1.166-1.235-1.619 C38.617,20.776,37.886,20.378,37.088,20.17"/><linearGradient id="YAUH~pB5OZ9CKQK6YVoadf" x1="-652.235" x2="-651.235" y1="212.015" y2="212.015" gradientTransform="matrix(0 -17 -17 0 3631 -11051)" gradientUnits="userSpaceOnUse" spreadMethod="reflect"><stop offset="0" stop-color="#ff735f"/><stop offset=".151" stop-color="#fe746f"/><stop offset=".488" stop-color="#fc758c"/><stop offset=".779" stop-color="#fb769e"/><stop offset=".989" stop-color="#fb76a4"/><stop offset="1" stop-color="#fb76a4"/></linearGradient><path fill="url(#YAUH~pB5OZ9CKQK6YVoadf)" d="M26.28,20c-0.32,0-0.65,0.03-0.98,0.09c-2.06,0.36-3.75,1.99-4.18,4.04 c-0.249,1.198-0.092,2.343,0.357,3.325c0.275,0.6,0.66,1.139,1.128,1.592l-0.001,0L28.371,35H28.5c1.38,0,2.5-1.12,2.5-2.5 c0-0.69-0.28-1.32-0.73-1.77C29.82,30.28,29.19,30,28.5,30h-1c-1.38,0-2.5-1.12-2.5-2.5c0-0.69,0.28-1.32,0.73-1.77 C26.18,25.28,26.81,25,27.5,25H30c1.38,0,2.5-1.12,2.5-2.5c0-0.41-0.1-0.79-0.27-1.13c-0.236,0.198-0.454,0.44-0.654,0.694 c-0.011,0.014-0.022,0.029-0.033,0.043c-0.133,0.178-0.338,0.267-0.543,0.267s-0.41-0.089-0.543-0.267 c-0.951-1.269-2.454-2.097-4.161-2.107C26.29,20,26.285,20,26.28,20"/><linearGradient id="YAUH~pB5OZ9CKQK6YVoadg" x1="45" x2="45" y1="29.5" y2="40.506" gradientUnits="userSpaceOnUse" spreadMethod="reflect"><stop offset="0" stop-color="#dff9ff"/><stop offset="0" stop-color="#dff9ff"/><stop offset=".173" stop-color="#d8f8ff"/><stop offset=".423" stop-color="#c5f4ff"/><stop offset=".72" stop-color="#a5eeff"/><stop offset="1" stop-color="#81e7ff"/></linearGradient><path fill="url(#YAUH~pB5OZ9CKQK6YVoadg)" d="M42.5,29c-1.596,0-2.855,1.516-2.409,3.179c0.295,1.1,1.358,1.821,2.497,1.821h0.002 c1.331,0,2.41,1.079,2.41,2.41V42h5v-8v-2v-3H42.5z"/><linearGradient id="YAUH~pB5OZ9CKQK6YVoadh" x1="-664.826" x2="-663.826" y1="229.751" y2="229.751" gradientTransform="matrix(0 -46.834 -46.834 0 10791.16 -31064.947)" gradientUnits="userSpaceOnUse" spreadMethod="reflect"><stop offset="0" stop-color="#f29265"/><stop offset=".64" stop-color="#fbb687"/><stop offset="1" stop-color="#ffc595"/></linearGradient><path fill="url(#YAUH~pB5OZ9CKQK6YVoadh)" d="M51.69,31h-0.005c-0.447,0-0.884,0.129-1.259,0.373L33.18,42.583 c-0.663,0.431-1.422,0.646-2.18,0.646s-1.517-0.215-2.18-0.646l-17.246-11.21C11.2,31.129,10.762,31,10.315,31H10.31 C9.034,31,8,32.034,8,33.31v22.993C8,58.897,10.239,61,13,61h36c2.761,0,5-2.103,5-4.697V33.31C54,32.034,52.966,31,51.69,31"/><linearGradient id="YAUH~pB5OZ9CKQK6YVoadi" x1="31.305" x2="31.305" y1="75.667" y2="37" gradientUnits="userSpaceOnUse" spreadMethod="reflect"><stop offset="0" stop-color="#ff8b67"/><stop offset=".847" stop-color="#ffa76a"/><stop offset="1" stop-color="#ffad6b"/><stop offset="1" stop-color="#ffad6b"/></linearGradient><path fill="url(#YAUH~pB5OZ9CKQK6YVoadi)" d="M54,33.31V56.3c0,2.6-2.24,4.7-5,4.7H13c-1.9,0-3.55-0.99-4.39-2.46l41.82-27.17 C50.8,31.13,51.24,31,51.68,31h0.01C52.97,31,54,32.03,54,33.31z"/><linearGradient id="YAUH~pB5OZ9CKQK6YVoadj" x1="-660.308" x2="-659.719" y1="255.4" y2="255.4" gradientTransform="matrix(0 -30 30 0 -7649.009 -19755.025)" gradientUnits="userSpaceOnUse" spreadMethod="reflect"><stop offset="0" stop-color="#f1bb76"/><stop offset=".234" stop-color="#f7be80"/><stop offset=".672" stop-color="#ffc28f"/><stop offset="1" stop-color="#ffc28f"/></linearGradient><path fill="url(#YAUH~pB5OZ9CKQK6YVoadj)" d="M16,38l-8,0v11h5.893c0.996,0,1.919-0.681,2.08-1.664C16.176,46.083,15.215,45,14,45h-1.5 c-0.829,0-1.5-0.672-1.5-1.5s0.671-1.5,1.5-1.5l3.393,0c0.996,0,1.919-0.681,2.08-1.664C18.176,39.083,17.215,38,16,38"/><linearGradient id="YAUH~pB5OZ9CKQK6YVoadk" x1="-682.136" x2="-683.136" y1="255.633" y2="255.633" gradientTransform="matrix(0 30 30 0 -7649.009 20530.023)" gradientUnits="userSpaceOnUse" spreadMethod="reflect"><stop offset="0" stop-color="#f1bb5d"/><stop offset=".426" stop-color="#fbc080"/><stop offset=".672" stop-color="#ffc28f"/><stop offset="1" stop-color="#ffc28f"/></linearGradient><path fill="url(#YAUH~pB5OZ9CKQK6YVoadk)" d="M20,49c-1.104,0-2-0.895-2-2c0-1.104,0.896-2,2-2c1.105,0,2,0.896,2,2 C22,48.105,21.104,49,20,49"/><g><linearGradient id="YAUH~pB5OZ9CKQK6YVoadl" x1="43.5" x2="43.5" y1="56.583" y2="30.576" gradientUnits="userSpaceOnUse" spreadMethod="reflect"><stop offset="0" stop-color="#ff8b67"/><stop offset=".847" stop-color="#ffa76a"/><stop offset="1" stop-color="#ffad6b"/><stop offset="1" stop-color="#ffad6b"/></linearGradient><path fill="url(#YAUH~pB5OZ9CKQK6YVoadl)" d="M42,47L42,47c0,1.657,1.343,3,3,3h1.5c1.381,0,2.5,1.119,2.5,2.5v0 c0,1.381-1.119,2.5-2.5,2.5H36c-1.657,0-3,1.343-3,3v0c0,1.657,1.343,3,3,3h13c2.761,0,5-2.239,5-5V44h-9 C43.343,44,42,45.343,42,47z"/><linearGradient id="YAUH~pB5OZ9CKQK6YVoadm" x1="37" x2="37" y1="53.379" y2="37.999" gradientUnits="userSpaceOnUse" spreadMethod="reflect"><stop offset="0" stop-color="#ff8b67"/><stop offset=".847" stop-color="#ffa76a"/><stop offset="1" stop-color="#ffad6b"/><stop offset="1" stop-color="#ffad6b"/></linearGradient><path fill="url(#YAUH~pB5OZ9CKQK6YVoadm)" d="M37 44A3 3 0 1 0 37 50A3 3 0 1 0 37 44Z"/></g></svg>